<svg width="500" height="500" xmlns="http://www.w3.org/2000/svg">

 <g>
  <title>background</title>
  <rect fill="none" id="canvas_background" height="402" width="582" y="-1" x="-1"/>
 </g>
 <g>
  <title>Layer 1</title>
  <rect fill="#030007" y="-0.000003" x="0" width="500" ry="250" rx="250" id="rect2990-1" height="500"/>
  <path fill="#ffffff" id="rect2989-7" d="m261.27728,159.732157c-17.03095,0.0794 -27.89097,0.1 -43.2011,0.1c-12.80536,0 -19.99692,5.18338 -20.22552,8.27522c-0.20904,2.82686 6.32628,5.11264 10.30026,7.40018c3.83591,2.37796 7.30019,9.9267 7.30019,15.02539l0,44.47614c0,4.22661 -0.96041,7.1705 -4.37511,9.92525c-1.62664,1.31227 -3.56019,1.66165 -5.65015,1.65004c-1.6913,-0.009 -3.9916,-0.32527 -5.57514,-2.37506c-16.86696,-21.83321 -16.92263,-24.5293 -40.55104,-68.52675c-1.146,-2.13394 -2.27818,-4.398 -4.62512,-6.10016c-2.34695,-1.70217 -5.82484,-2.82507 -11.40029,-2.82507c-18.99217,0 -30.71308,0.27501 -43.20111,0.27501c-11.82049,0 -10.6835,7.24893 -9.10023,10.55027c14.17157,29.54942 28.56043,57.76401 45.10116,86.40221c19.37059,33.53776 37.07918,53.68235 66.87671,68.15175c6.91637,3.35851 19.38734,6.82517 33.80086,6.82517l30.62579,0c3.93499,0 10.47527,-3.10473 10.47527,-7.27519l0,-22.97558c0,-6.57076 6.55134,-8.95976 10.12526,-10.57527c4.21054,-1.9033 8.62601,1.09724 10.85027,3.47508c17.12127,18.30348 15.17558,16.31195 30.77579,32.70084c3.52511,3.70333 6.18717,5.65015 12.85033,5.65015c44.99403,0 45.03118,0.086 55.77643,0c2.9505,-0.0236 7.332,-4.44986 8.30021,-6.17516c1.27811,-2.27746 4.18373,-10.40721 -0.47501,-15.6754c-15.81204,-17.88053 -31.92938,-34.2519 -47.37621,-50.5013c-1.17775,-1.23892 -2.06766,-2.91599 -2.10006,-4.62512c-0.0353,-1.86901 1.00733,-3.68343 2.10006,-5.20013c17.32466,-24.04652 31.63566,-44.40855 47.20121,-69.70178c5.0597,-8.22179 4.40534,-14.04478 3.47508,-16.05041c-1.07727,-2.3226 -4.39368,-5.52975 -8.20021,-5.55015c-20.78653,-0.11663 -29.77745,-0.40765 -51.95133,-0.37501c-6.62301,0.01 -12.48865,-0.49868 -16.12541,7.4752c-9.74533,21.36737 -25.64546,53.97251 -39.45101,67.52672c-2.54918,2.50172 -5.95365,4.36048 -8.92523,4.37512c-2.97155,0.0145 -6.13119,-2.00959 -6.57517,-6.85018c-0.33999,-23.25517 -0.0572,-43.09522 -0.175,-65.87669c-0.036,-6.96349 -2.97231,-8.75518 -5.20013,-10.30026c-3.02212,-2.09591 -7.79754,-2.74259 -11.4753,-2.72507z"/>
 </g>
</svg>