<svg width="67" height="67" xmlns="http://www.w3.org/2000/svg">

 <g>
  <title>background</title>
  <rect fill="none" id="canvas_background" height="402" width="582" y="-1" x="-1"/>
 </g>
 <g>
  <title>Layer 1</title>
  <ellipse ry="26.045632" rx="26.045632" id="svg_2" cy="34.287456" cx="34.188196" stroke-width="1.5" stroke="#000" fill="#fff"/>
  <path id="svg_1" fill-rule="evenodd" clip-rule="evenodd" fill="#030007" d="m43.527,41.34c-0.278,0 -0.478,0.078 -0.6,0.244c-0.121,0.156 -0.18,0.424 -0.18,0.796l0,0.896l1.543,0l0,-0.896c0,-0.372 -0.062,-0.64 -0.185,-0.796c-0.116,-0.166 -0.313,-0.244 -0.578,-0.244zm-6.018,-0.031c0.234,0 0.417,0.076 0.544,0.23c0.123,0.154 0.185,0.383 0.185,0.682l0,4.584c0,0.286 -0.053,0.487 -0.153,0.611c-0.1,0.127 -0.256,0.189 -0.47,0.189c-0.148,0 -0.287,-0.033 -0.421,-0.096c-0.135,-0.062 -0.274,-0.171 -0.415,-0.313l0,-5.531c0.119,-0.122 0.239,-0.213 0.36,-0.271c0.121,-0.059 0.244,-0.085 0.37,-0.085zm5.239,3.349l0,1.672c0,0.468 0.057,0.792 0.17,0.974c0.118,0.181 0.313,0.269 0.592,0.269c0.289,0 0.491,-0.076 0.606,-0.229c0.114,-0.153 0.175,-0.489 0.175,-1.013l0,-0.405l1.795,0l0,0.456c0,0.911 -0.217,1.596 -0.657,2.059c-0.435,0.459 -1.089,0.687 -1.958,0.687c-0.781,0 -1.398,-0.242 -1.847,-0.731c-0.448,-0.486 -0.676,-1.157 -0.676,-2.014l0,-3.986c0,-0.768 0.249,-1.398 0.742,-1.882c0.493,-0.485 1.128,-0.727 1.911,-0.727c0.799,0 1.413,0.225 1.843,0.674c0.429,0.448 0.642,1.093 0.642,1.935l0,2.264l-3.338,0l0,-0.003zm-3.125,3.837c-0.271,0.336 -0.669,0.501 -1.187,0.501c-0.343,0 -0.646,-0.062 -0.912,-0.192c-0.267,-0.129 -0.519,-0.327 -0.746,-0.601l0,0.681l-1.764,0l0,-12.032l1.764,0l0,3.875c0.237,-0.27 0.485,-0.478 0.748,-0.617c0.267,-0.142 0.534,-0.211 0.805,-0.211c0.554,0 0.975,0.189 1.265,0.565c0.294,0.379 0.438,0.933 0.438,1.66l0,4.926c0,0.628 -0.137,1.109 -0.411,1.445zm-7.665,0.389l0,-0.976c-0.325,0.361 -0.658,0.636 -1.009,0.822c-0.349,0.191 -0.686,0.282 -1.014,0.282c-0.405,0 -0.705,-0.129 -0.913,-0.396c-0.201,-0.266 -0.305,-0.658 -0.305,-1.189l0,-7.422l1.744,0l0,6.809c0,0.211 0.037,0.362 0.107,0.457c0.077,0.095 0.196,0.141 0.358,0.141c0.128,0 0.292,-0.062 0.488,-0.188c0.197,-0.125 0.375,-0.283 0.542,-0.475l0,-6.744l1.744,0l0,8.878l-1.742,0l0,0.001zm-6.042,-10.284l0,10.284l-1.968,0l0,-10.284l-2.034,0l0,-1.748l6.036,0l0,1.748l-2.034,0zm8.078,-5.622c0,-0.001 12.08,0.018 13.514,1.45c1.439,1.435 1.455,8.514 1.455,8.555c0,0 -0.012,7.117 -1.455,8.556c-1.434,1.43 -13.514,1.461 -13.514,1.461s-12.079,-0.031 -13.516,-1.462c-1.438,-1.435 -1.441,-8.502 -1.441,-8.556c0,-0.041 0.004,-7.12 1.441,-8.555c1.438,-1.431 13.516,-1.45 13.516,-1.449zm9.526,-3.723l-1.966,0l0,-1.08c-0.358,0.397 -0.736,0.703 -1.13,0.909c-0.392,0.208 -0.771,0.312 -1.14,0.312c-0.458,0 -0.797,-0.146 -1.027,-0.437c-0.229,-0.291 -0.345,-0.727 -0.345,-1.311l0,-8.172l1.962,0l0,7.497c0,0.231 0.045,0.399 0.127,0.502c0.08,0.104 0.216,0.156 0.399,0.156c0.143,0 0.327,-0.069 0.548,-0.206c0.22,-0.137 0.423,-0.312 0.605,-0.527l0,-7.422l1.966,0l0,9.779l0.001,0zm-10.673,-1.667c0.139,0.147 0.339,0.219 0.6,0.219c0.266,0 0.476,-0.075 0.634,-0.223c0.157,-0.152 0.235,-0.358 0.235,-0.618l0,-5.327c0,-0.214 -0.08,-0.387 -0.241,-0.519c-0.16,-0.131 -0.37,-0.196 -0.628,-0.196c-0.241,0 -0.435,0.065 -0.586,0.196c-0.148,0.132 -0.225,0.305 -0.225,0.519l0,5.327c0,0.267 0.072,0.473 0.211,0.622zm-1.439,-7.685c0.528,-0.449 1.241,-0.674 2.132,-0.674c0.812,0 1.48,0.237 2.001,0.711c0.517,0.473 0.777,1.083 0.777,1.828l0,5.051c0,0.836 -0.255,1.491 -0.762,1.968c-0.513,0.476 -1.212,0.714 -2.106,0.714c-0.858,0 -1.547,-0.246 -2.064,-0.736c-0.513,-0.492 -0.772,-1.153 -0.772,-1.984l0,-5.068c-0.001,-0.759 0.263,-1.362 0.794,-1.81zm-6.146,-3.903l-2.229,0l2.634,8.003l0,5.252l2.213,0l0,-5.5l2.574,-7.755l-2.25,0l-1.366,5.298l-0.139,0l-1.437,-5.298zm8.738,48c-16.568,0 -30,-13.432 -30,-30c0,-16.569 13.432,-30 30,-30s30,13.431 30,30c0,16.568 -13.432,30 -30,30z"/>
 </g>
</svg>